<?xml version="1.0" encoding="UTF-8"?> <svg xmlns="http://www.w3.org/2000/svg" id="uuid-b4f76586-1b67-4d40-ab46-75ee061f2d86" data-name="Projecto : Big images Image" viewBox="0 0 206.07 89.26"><g><path d="m125.71,65.89h1v7.97h5.01v.93h-6.01v-8.9Z" style="fill: #231e46;"></path><path d="m133.44,65.7h1.12v1.08h-1.12v-1.08Zm.06,2.52h.98v6.57h-.98v-6.57Z" style="fill: #231e46;"></path><path d="m136.76,68.21h.98v1.14c.43-.71,1.12-1.28,2.25-1.28,1.59,0,2.52,1.07,2.52,2.63v4.08h-.98v-3.84c0-1.22-.66-1.98-1.82-1.98s-1.97.83-1.97,2.06v3.76h-.98v-6.57Z" style="fill: #231e46;"></path><path d="m144.51,75.93l.45-.76c.75.55,1.59.84,2.53.84,1.45,0,2.39-.8,2.39-2.34v-.78c-.57.76-1.37,1.39-2.58,1.39-1.58,0-3.09-1.18-3.09-3.08v-.02c0-1.92,1.53-3.1,3.09-3.1,1.23,0,2.03.61,2.57,1.32v-1.18h.98v5.43c0,1.02-.31,1.79-.84,2.33-.58.58-1.46.88-2.5.88s-2.11-.3-2.99-.92Zm5.39-4.74v-.02c0-1.35-1.17-2.22-2.42-2.22s-2.28.86-2.28,2.21v.03c0,1.32,1.06,2.24,2.28,2.24s2.42-.9,2.42-2.22Z" style="fill: #231e46;"></path><path d="m152.93,72.29v-4.08h.98v3.84c0,1.22.66,1.98,1.82,1.98s1.97-.83,1.97-2.06v-3.76h.97v6.57h-.97v-1.14c-.45.71-1.12,1.28-2.25,1.28-1.59,0-2.52-1.07-2.52-2.63Z" style="fill: #231e46;"></path><path d="m160.88,65.7h1.12v1.08h-1.12v-1.08Zm.06,2.52h.98v6.57h-.98v-6.57Z" style="fill: #231e46;"></path><path d="m163.66,73.95l.5-.7c.71.53,1.5.84,2.28.84s1.36-.41,1.36-1.04v-.02c0-.66-.78-.92-1.64-1.16-1.03-.29-2.17-.65-2.17-1.86v-.02c0-1.13.94-1.88,2.24-1.88.8,0,1.69.28,2.36.73l-.45.74c-.61-.39-1.31-.64-1.94-.64-.77,0-1.27.41-1.27.95v.03c0,.62.81.86,1.69,1.13,1.02.31,2.11.7,2.11,1.88v.03c0,1.25-1.03,1.97-2.34,1.97-.94,0-1.98-.37-2.72-.97Z" style="fill: #231e46;"></path><path d="m170.75,73.04v-3.97h-.92v-.86h.92v-1.98h.98v1.98h2.09v.86h-2.09v3.84c0,.8.45,1.09,1.11,1.09.33,0,.61-.06.95-.23v.84c-.34.18-.71.28-1.18.28-1.05,0-1.86-.52-1.86-1.86Z" style="fill: #231e46;"></path><path d="m175.57,65.7h1.12v1.08h-1.12v-1.08Zm.06,2.52h.98v6.57h-.98v-6.57Z" style="fill: #231e46;"></path><path d="m178.48,71.53v-.03c0-1.86,1.45-3.43,3.37-3.43,1.25,0,2.02.52,2.63,1.17l-.65.69c-.52-.55-1.11-.99-2-.99-1.33,0-2.35,1.13-2.35,2.54v.02c0,1.42,1.04,2.56,2.42,2.56.84,0,1.49-.42,2.01-.98l.62.59c-.66.74-1.45,1.27-2.68,1.27-1.92,0-3.37-1.56-3.37-3.41Z" style="fill: #231e46;"></path><path d="m125.71,80.2h3.09c2.8,0,4.73,1.92,4.73,4.42v.03c0,2.5-1.93,4.45-4.73,4.45h-3.09v-8.9Zm1,.93v7.04h2.09c2.25,0,3.69-1.53,3.69-3.5v-.03c0-1.97-1.44-3.52-3.69-3.52h-2.09Z" style="fill: #231e46;"></path><path d="m134.99,87.2v-.02c0-1.39,1.14-2.12,2.81-2.12.84,0,1.44.11,2.02.28v-.23c0-1.18-.73-1.79-1.96-1.79-.78,0-1.39.2-2,.48l-.29-.8c.73-.33,1.44-.55,2.39-.55s1.64.24,2.12.72c.45.45.67,1.08.67,1.92v4.02h-.94v-.99c-.46.6-1.22,1.13-2.38,1.13-1.22,0-2.45-.7-2.45-2.05Zm4.84-.51v-.64c-.48-.14-1.13-.28-1.93-.28-1.23,0-1.92.53-1.92,1.36v.03c0,.83.76,1.31,1.65,1.31,1.21,0,2.2-.74,2.2-1.78Z" style="fill: #231e46;"></path><path d="m143.13,87.36v-3.97h-.92v-.86h.92v-1.98h.98v1.98h2.09v.86h-2.09v3.84c0,.8.45,1.09,1.11,1.09.33,0,.61-.06.95-.23v.84c-.34.18-.71.28-1.18.28-1.05,0-1.86-.52-1.86-1.86Z" style="fill: #231e46;"></path><path d="m147.42,87.2v-.02c0-1.39,1.14-2.12,2.81-2.12.84,0,1.44.11,2.02.28v-.23c0-1.18-.73-1.79-1.96-1.79-.78,0-1.39.2-2,.48l-.29-.8c.73-.33,1.44-.55,2.39-.55s1.64.24,2.12.72c.45.45.67,1.08.67,1.92v4.02h-.94v-.99c-.46.6-1.22,1.13-2.38,1.13-1.22,0-2.45-.7-2.45-2.05Zm4.84-.51v-.64c-.48-.14-1.13-.28-1.93-.28-1.23,0-1.92.53-1.92,1.36v.03c0,.83.76,1.31,1.65,1.31,1.21,0,2.2-.74,2.2-1.78Z" style="fill: #231e46;"></path><path d="m158.67,87.81l.62-.74c.93.84,1.82,1.26,3.05,1.26s1.98-.64,1.98-1.51v-.02c0-.83-.45-1.3-2.31-1.69-2.05-.45-2.99-1.11-2.99-2.57v-.02c0-1.4,1.23-2.43,2.92-2.43,1.3,0,2.22.37,3.13,1.09l-.58.78c-.83-.67-1.65-.97-2.57-.97-1.16,0-1.89.64-1.89,1.44v.03c0,.84.46,1.31,2.42,1.73,1.98.43,2.9,1.16,2.9,2.52v.02c0,1.53-1.27,2.52-3.04,2.52-1.41,0-2.57-.47-3.64-1.42Z" style="fill: #231e46;"></path><path d="m166.82,85.85v-.03c0-1.86,1.45-3.43,3.37-3.43,1.25,0,2.02.52,2.63,1.17l-.65.69c-.52-.55-1.11-.99-2-.99-1.33,0-2.35,1.13-2.35,2.54v.02c0,1.42,1.04,2.56,2.42,2.56.84,0,1.49-.42,2.01-.98l.62.59c-.66.74-1.45,1.27-2.68,1.27-1.92,0-3.37-1.56-3.37-3.41Z" style="fill: #231e46;"></path><path d="m174.51,80.01h1.12v1.08h-1.12v-1.08Zm.06,2.52h.98v6.57h-.98v-6.57Z" style="fill: #231e46;"></path><path d="m177.42,85.84v-.02c0-1.89,1.34-3.42,3.15-3.42,1.94,0,3.06,1.55,3.06,3.47,0,.13,0,.2-.01.32h-5.21c.14,1.42,1.14,2.22,2.31,2.22.9,0,1.54-.37,2.07-.93l.61.55c-.66.74-1.46,1.23-2.71,1.23-1.81,0-3.28-1.39-3.28-3.42Zm5.23-.38c-.1-1.2-.79-2.24-2.1-2.24-1.14,0-2.01.95-2.14,2.24h4.23Z" style="fill: #231e46;"></path><path d="m185.36,82.53h.98v1.14c.43-.71,1.12-1.28,2.25-1.28,1.59,0,2.52,1.07,2.52,2.63v4.08h-.98v-3.84c0-1.22-.66-1.98-1.82-1.98s-1.97.83-1.97,2.06v3.76h-.98v-6.57Z" style="fill: #231e46;"></path><path d="m192.78,85.85v-.03c0-1.86,1.45-3.43,3.37-3.43,1.25,0,2.02.52,2.63,1.17l-.65.69c-.52-.55-1.11-.99-2-.99-1.33,0-2.35,1.13-2.35,2.54v.02c0,1.42,1.04,2.56,2.42,2.56.84,0,1.49-.42,2.01-.98l.62.59c-.66.74-1.45,1.27-2.68,1.27-1.92,0-3.37-1.56-3.37-3.41Z" style="fill: #231e46;"></path><path d="m199.85,85.84v-.02c0-1.89,1.34-3.42,3.15-3.42,1.94,0,3.06,1.55,3.06,3.47,0,.13,0,.2-.01.32h-5.21c.14,1.42,1.14,2.22,2.31,2.22.9,0,1.54-.37,2.07-.93l.61.55c-.66.74-1.46,1.23-2.71,1.23-1.81,0-3.28-1.39-3.28-3.42Zm5.23-.38c-.1-1.2-.79-2.24-2.1-2.24-1.14,0-2.01.95-2.14,2.24h4.23Z" style="fill: #231e46;"></path></g><g><path d="m150.81,0h-11.85c-1.66,0-3.01,1.35-3.01,3.01s1.35,3.01,3.01,3.01h11.85c1.66,0,3.01-1.35,3.01-3.01s-1.35-3.01-3.01-3.01Z" style="fill: #231e46;"></path><path d="m131.02.87h-2.55c-1.07,0-1.93.86-1.93,1.93s.86,1.93,1.93,1.93h2.55c1.07,0,1.93-.86,1.93-1.93s-.86-1.93-1.93-1.93Z" style="fill: #0087ca;"></path><rect x="142.27" y="30.68" width="6.41" height="3.86" rx="1.93" ry="1.93" style="fill: #0087ca;"></rect><path d="m108.95,10.96h-19.37c-1.07,0-1.93.86-1.93,1.93s.86,1.93,1.93,1.93h19.37c1.07,0,1.93-.86,1.93-1.93s-.86-1.93-1.93-1.93Z" style="fill: #0087ca;"></path><path d="m158.33,38.81h-7.67c-2.57,0-4.65,2.08-4.65,4.65s2.08,4.65,4.65,4.65h7.67c2.57,0,4.65-2.08,4.65-4.65s-2.08-4.65-4.65-4.65Z" style="fill: #0087ca;"></path><path d="m164.81,18.56h-18.07c-.6,0-1.18-.25-1.6-.67l-1.76-1.77c-.49-.49-.74-1.2-.53-1.86.1-.32.15-.66.15-1.01,0-1.89-1.53-3.43-3.43-3.43h-8.56s0,0,0,0h-8.36c-1.89,0-3.43,1.53-3.43,3.43,0,.35.05.69.15,1.01.2.66-.05,1.37-.53,1.86l-1.76,1.77c-.43.44-1.03.68-1.64.68h-14.51c-2.08,0-3.72,1.85-3.38,3.99.27,1.69,1.86,2.86,3.58,2.86h11.22c.74,0,1.45.29,1.97.81l3.75,3.75c.43.43.5,1.06.27,1.61-.21.52-.3,1.1-.21,1.72.24,1.74,1.88,2.96,3.64,2.96h12.32c1.71,0,3.3-1.17,3.58-2.86.34-2.14-1.3-3.99-3.38-3.99h-11.74c-.55,0-1.08-.22-1.47-.61l-3.07-3.07c-.26-.26-.22-.69.09-.9.93-.61,1.54-1.66,1.54-2.85,0-.56-.14-1.09-.38-1.56-.11-.21-.09-.46.08-.63l2.69-2.7c.27-.27.65-.43,1.03-.43h16.35c.21,0,.42.09.57.24l1.65,1.64h-2.44c-1.66,0-3.01,1.35-3.01,3.01s1.35,3.01,3.01,3.01h25.62c1.66,0,3.01-1.35,3.01-3.01s-1.35-3.01-3.01-3.01Z" style="fill: #18467b;"></path></g><g><path d="m93.81,61.62c.17.01.34.03,4.98.03h0c.18,0,.35-.02.53-.04,2.21,0,4.51,0,5.04.02,1.53.16,2.72,1.34,2.72,2.73s-1.2,2.58-2.74,2.73c-1.08,0-19.8.01-25.15.02-2.23,0-4.03,1.81-4.03,4.03,0,2.22,1.8,4.03,4.03,4.03h0c14.6,0,25.43-.02,25.61-.03,5.79-.4,10.33-5.13,10.33-10.77s-4.5-10.33-10.25-10.77c-.18-.01-.34-.03-6.18-.03h0c-.18,0-.35.02-.53.04-1.69,0-3.4,0-3.84-.02-1.53-.15-2.72-1.34-2.72-2.73s1.19-2.58,2.74-2.73c1.14,0-1.7-.01,4.17-.02,2.23,0,4.03-1.81,4.03-4.03,0-2.22-1.8-4.03-4.03-4.03h0s-5.93.03-6.11.03c-5.48,0-8.85,5.13-8.85,10.77s4.5,10.33,10.25,10.77Z" style="fill: #231e46;"></path><path d="m23.68,67.02c-1.54,0-17.61.02-17.61.02-.69,0-1.24-.56-1.24-1.24s.56-1.24,1.24-1.24h2.01s-.01-15.76-.01-20.5c0-2.23-1.81-4.03-4.03-4.03-2.22,0-4.03,1.8-4.03,4.03h0c0,14.61.02,20.51.03,20.69.39,5.62,4.86,10.01,10.27,10.28v.03s-.17,0,.37,0c.05,0,.09.01.14.01,0,0,.01,0,.02,0h0c1.06,0,4.11,0,12.85,0h0c2.22,0,4.03-1.8,4.03-4.03,0-2.23-1.8-4.03-4.03-4.03Z" style="fill: #231e46;"></path><path d="m55.78,40.1h-13.77c-5.01,0-9.07,4.06-9.07,9.07v16.84c0,5.01,4.06,9.07,9.07,9.07h14.41c9.39,0,17.06-7.48,17.37-16.99.32-9.89-8.12-17.98-18.01-17.98Zm.21,26.97h-13.98c-.58,0-1.06-.48-1.06-1.06v-14.23c0-.64-.52-1.17-1.17-1.17h-1.6c-.69,0-1.24-.56-1.24-1.24s.56-1.24,1.24-1.24h3.74s.06-.02.09-.02h14.41c5.03,0,9.15,3.98,9.37,9.15s-4.4,9.81-9.8,9.81Z" style="fill: #231e46;"></path></g></svg> 